<svg width="512" height="512" viewBox="0 0 512 512" fill="none" xmlns="http://www.w3.org/2000/svg">
  <rect width="512" height="512" rx="96" fill="#10b981"/>
  <g transform="translate(128, 128) scale(10.67)">
    <path d="M4.5 16.5C3 18 5.5 21 5.5 21C5.5 21 8.5 18 7 16.5C5.5 15 3 15 4.5 16.5Z" stroke="white" stroke-width="2.5" stroke-linecap="round" stroke-linejoin="round"/>
    <path d="M12 15L17 10C18.5 8.5 18.5 5.5 18.5 5.5C18.5 5.5 15.5 5.5 14 7L9 12" stroke="white" stroke-width="2.5" stroke-linecap="round" stroke-linejoin="round"/>
    <path d="M9 12L7 14" stroke="white" stroke-width="2.5" stroke-linecap="round" stroke-linejoin="round"/>
    <path d="M12 15L10 17" stroke="white" stroke-width="2.5" stroke-linecap="round" stroke-linejoin="round"/>
    <path d="M16 8L14.5 9.5" stroke="white" stroke-width="2.5" stroke-linecap="round" stroke-linejoin="round"/>
    <path d="M7 3C5 5 5.5 8 5.5 8L7 9.5" stroke="white" stroke-width="2.5" stroke-linecap="round" stroke-linejoin="round"/>
    <path d="M21 17C19 19 16 18.5 16 18.5L14.5 17" stroke="white" stroke-width="2.5" stroke-linecap="round" stroke-linejoin="round"/>
  </g>
</svg>